<svg width="50" height="50" viewBox="0 0 50 50" fill="none" xmlns="http://www.w3.org/2000/svg">
<path d="M16.5 16.5H26.7V10.8333C26.7 9.58156 25.6851 8.56665 24.4333 8.56665H22.7333V9.69998C22.7333 10.3259 22.2259 10.8333 21.6 10.8333H13.6667C13.0408 10.8333 12.5333 10.3259 12.5333 9.69998V8.56665H10.8333C9.58156 8.56665 8.56665 9.58156 8.56665 10.8333V39.1667C8.56665 40.4184 9.58156 41.4333 10.8333 41.4333H24.4333C25.6851 41.4333 26.7 40.4184 26.7 39.1667V24.4333H16.5V16.5ZM17.6333 37.4667C18.2592 37.4667 18.7667 37.9741 18.7667 38.6C18.7667 39.2259 18.2592 39.7333 17.6333 39.7333C17.0074 39.7333 16.5 39.2259 16.5 38.6C16.5 37.9741 17.0074 37.4667 17.6333 37.4667Z" fill="#B0B9E1"/>
<path d="M10.2667 35.2H25.0001V36.3333H10.2667V35.2Z" fill="#3A57E8"/>
<path d="M17.6333 40.3C16.6945 40.3 15.9333 39.5388 15.9333 38.6C15.9333 37.6612 16.6945 36.9 17.6333 36.9C18.5722 36.9 19.3334 37.6612 19.3334 38.6C19.3334 39.5388 18.5722 40.3 17.6333 40.3ZM17.6333 38.0334C17.3204 38.0334 17.0667 38.2871 17.0667 38.6C17.0667 38.913 17.3204 39.1667 17.6333 39.1667C17.9463 39.1667 18.2 38.913 18.2 38.6C18.2 38.2871 17.9463 38.0334 17.6333 38.0334Z" fill="#3A57E8"/>
<path d="M26.1333 39.1667C26.1333 40.1055 25.3722 40.8667 24.4333 40.8667H10.8333C9.89451 40.8667 9.13333 40.1055 9.13333 39.1667V10.8333C9.13333 9.89451 9.89451 9.13333 10.8333 9.13333H11.9667V9.7C11.9667 10.6388 12.7278 11.4 13.6667 11.4H21.6C22.5388 11.4 23.3 10.6388 23.3 9.7V9.13333H24.4333C25.3722 9.13333 26.1333 9.89451 26.1333 10.8333V14.8H27.2667V10.8333C27.2647 9.26919 25.9975 8.00194 24.4333 8H10.8333C9.26919 8.00194 8.00194 9.26919 8 10.8333V39.1667C8.00194 40.7308 9.26919 41.9981 10.8333 42H24.4333C25.9975 41.9981 27.2647 40.7308 27.2667 39.1667V26.1333H26.1333V39.1667ZM13.1 9.13333H22.1667V9.7C22.1667 10.0129 21.9129 10.2667 21.6 10.2667H13.6667C13.3537 10.2667 13.1 10.0129 13.1 9.7V9.13333Z" fill="#3A57E8"/>
<path d="M15.9333 15.9333V25H42V15.9333H15.9333ZM40.8667 23.8667H17.0667V17.0667H40.8667V23.8667Z" fill="#3A57E8"/>
<path d="M18.7871 22.0908L19.9 21.448V22.7333H21.0333V21.448L22.1462 22.0908L22.7128 21.1091L21.6 20.4666L22.7128 19.8241L22.1462 18.8424L21.0333 19.4852V18.2H19.9V19.4852L18.7871 18.8424L18.2205 19.8241L19.3333 20.4666L18.2205 21.1091L18.7871 22.0908Z" fill="#3A57E8"/>
<path d="M24.4538 22.0908L25.5666 21.448V22.7333H26.6999V21.448L27.8128 22.0908L28.3795 21.1091L27.2666 20.4666L28.3795 19.8241L27.8128 18.8424L26.6999 19.4852V18.2H25.5666V19.4852L24.4538 18.8424L23.8871 19.8241L24.9999 20.4666L23.8871 21.1091L24.4538 22.0908Z" fill="#3A57E8"/>
<path d="M30.1205 22.0908L31.2334 21.448V22.7333H32.3667V21.448L33.4795 22.0908L34.0462 21.1091L32.9334 20.4666L34.0462 19.8241L33.4795 18.8424L32.3667 19.4852V18.2H31.2334V19.4852L30.1205 18.8424L29.5538 19.8241L30.6667 20.4666L29.5538 21.1091L30.1205 22.0908Z" fill="#3A57E8"/>
<path d="M35.7871 22.0908L36.9 21.448V22.7333H38.0333V21.448L39.1462 22.0908L39.7128 21.1091L38.6 20.4666L39.7128 19.8241L39.1462 18.8424L38.0333 19.4852V18.2H36.9V19.4852L35.7871 18.8424L35.2205 19.8241L36.3333 20.4666L35.2205 21.1091L35.7871 22.0908Z" fill="#3A57E8"/>
</svg>
