<svg width="24" height="24" viewBox="0 0 24 24" fill="none" xmlns="http://www.w3.org/2000/svg">
<path d="M12 12.5625C12.6675 12.5625 13.32 12.3646 13.875 11.9937C14.4301 11.6229 14.8626 11.0958 15.1181 10.4791C15.3735 9.86236 15.4404 9.18376 15.3101 8.52907C15.1799 7.87439 14.8585 7.27302 14.3865 6.80102C13.9145 6.32901 13.3131 6.00758 12.6584 5.87735C12.0037 5.74713 11.3251 5.81396 10.7084 6.06941C10.0917 6.32485 9.56464 6.75744 9.19379 7.31245C8.82294 7.86747 8.625 8.51999 8.625 9.1875C8.625 10.0826 8.98058 10.9411 9.61351 11.574C10.2464 12.2069 11.1049 12.5625 12 12.5625ZM12 6.9375C12.445 6.9375 12.88 7.06946 13.25 7.31669C13.62 7.56393 13.9084 7.91533 14.0787 8.32646C14.249 8.7376 14.2936 9.19 14.2068 9.62645C14.1199 10.0629 13.9057 10.4638 13.591 10.7785C13.2763 11.0932 12.8754 11.3075 12.439 11.3943C12.0025 11.4811 11.5501 11.4365 11.139 11.2662C10.7278 11.0959 10.3764 10.8075 10.1292 10.4375C9.88196 10.0675 9.75 9.63251 9.75 9.1875C9.75 8.59076 9.98705 8.01847 10.409 7.59651C10.831 7.17455 11.4033 6.9375 12 6.9375Z" fill="#FFB332"/>
<path d="M11.9999 20.4375C13.2473 20.4367 14.4789 20.1593 15.6062 19.6253C16.7335 19.0913 17.7284 18.314 18.5193 17.3494L18.8118 16.9894L18.5193 16.635C17.7278 15.6716 16.7326 14.8956 15.6053 14.3628C14.4781 13.83 13.2467 13.5537 11.9999 13.5537C10.7531 13.5537 9.52172 13.83 8.39445 14.3628C7.26719 14.8956 6.27201 15.6716 5.4805 16.635L5.188 16.9894L5.4805 17.3494C6.27134 18.314 7.26622 19.0913 8.39353 19.6253C9.52083 20.1593 10.7525 20.4367 11.9999 20.4375ZM17.338 16.995C16.6539 17.7274 15.8265 18.3113 14.9072 18.7105C13.988 19.1098 12.9965 19.3158 11.9943 19.3158C10.9921 19.3158 10.0005 19.1098 9.08128 18.7105C8.16202 18.3113 7.33464 17.7274 6.65051 16.995C7.33464 16.2626 8.16202 15.6787 9.08128 15.2794C10.0005 14.8802 10.9921 14.6742 11.9943 14.6742C12.9965 14.6742 13.988 14.8802 14.9072 15.2794C15.8265 15.6787 16.6539 16.2626 17.338 16.995Z" fill="#FFB332"/>
<path d="M12 20.4375C13.9166 20.4388 15.7765 19.7875 17.2736 18.5909C18.7707 17.3942 19.8158 15.7236 20.2369 13.8538C20.658 11.9841 20.43 10.0267 19.5904 8.30379C18.7508 6.58089 17.3497 5.19518 15.6176 4.37472C13.8855 3.55426 11.9257 3.34794 10.0607 3.78972C8.19576 4.2315 6.53677 5.29506 5.3568 6.80534C4.17683 8.31562 3.5462 10.1826 3.56871 12.0991C3.59121 14.0155 4.26551 15.8672 5.48062 17.3494C6.27146 18.314 7.26634 19.0913 8.39364 19.6253C9.52094 20.1593 10.7526 20.4367 12 20.4375ZM12 4.6875C13.4463 4.6875 14.8601 5.11638 16.0626 5.91988C17.2651 6.72339 18.2024 7.86544 18.7559 9.20163C19.3093 10.5378 19.4541 12.0081 19.172 13.4266C18.8898 14.8451 18.1934 16.148 17.1707 17.1707C16.148 18.1934 14.8451 18.8898 13.4266 19.172C12.0081 19.4541 10.5378 19.3093 9.20162 18.7559C7.86544 18.2024 6.72338 17.2651 5.91988 16.0626C5.11637 14.8601 4.6875 13.4463 4.6875 12C4.6875 10.0606 5.45792 8.20064 6.82928 6.82928C8.20064 5.45793 10.0606 4.6875 12 4.6875Z" fill="#FFB332"/>
<path d="M18.0862 16.9949C18.0862 16.9949 12.4218 23.323 6.65619 17.6249L5.91369 16.9949C5.91369 16.9949 10.7287 11.9999 15.6168 14.998L18.0862 16.9949Z" fill="#FFB332"/>
<path d="M12 12C10.4467 12 9.1875 10.7408 9.1875 9.1875C9.1875 7.6342 10.4467 6.375 12 6.375C13.5533 6.375 14.8125 7.6342 14.8125 9.1875C14.8125 10.7408 13.5533 12 12 12Z" fill="#FFB332"/>
</svg>
