<svg width="24" height="24" viewBox="0 0 24 24" fill="none" xmlns="http://www.w3.org/2000/svg">
<path d="M15.2438 17.4155L12 16.478L8.75622 17.4155C8.72813 17.4718 8.71875 17.528 8.71875 17.5937V19.5312H15.2812V17.5937C15.2812 17.528 15.2719 17.4718 15.2438 17.4155Z" fill="#646D73"/>
<path d="M15.2812 19.5312V17.5937C15.2812 17.528 15.2719 17.4718 15.2438 17.4155L12 16.478V19.5312H15.2812Z" fill="#474F54"/>
<path d="M19.5312 4.9375H17.1361C17.1402 4.77916 17.1562 4.63 17.1562 4.46875C17.1562 4.20622 16.95 4 16.6875 4H7.3125C7.04997 4 6.84375 4.20622 6.84375 4.46875C6.84375 4.63 6.85978 4.77916 6.86384 4.9375H4.46875C4.20966 4.9375 4 5.14716 4 5.40625V6.59369C4 9.211 6.09662 11.3372 8.68041 11.474C9.21869 12.2152 9.85753 12.7652 10.5844 13.075C10.4719 15.3531 9.16875 16.9375 8.85941 17.2657C8.8125 17.3031 8.775 17.3594 8.75625 17.4156H15.2438C15.225 17.3594 15.1875 17.3031 15.1406 17.2657C14.8219 16.9375 13.5281 15.3625 13.4156 13.075C14.1426 12.7651 14.7853 12.215 15.324 11.4736C17.9056 11.3345 20 9.20953 20 6.59369V5.40625C20 5.14716 19.7903 4.9375 19.5312 4.9375ZM4.9375 6.59369V5.875H6.90406C7.02572 7.42431 7.36169 9.06519 8.06781 10.4596C6.29781 10.061 4.9375 8.48259 4.9375 6.59369ZM19.0625 6.59369C19.0625 8.48163 17.7034 10.0593 15.9347 10.4588C16.6353 9.06441 16.9731 7.43941 17.0959 5.875H19.0625V6.59369Z" fill="#FED843"/>
<path d="M19.5312 4.9375H17.1361C17.1402 4.77916 17.1562 4.63 17.1562 4.46875C17.1562 4.20622 16.95 4 16.6875 4H12V17.4156H15.2438C15.225 17.3594 15.1875 17.3031 15.1406 17.2657C14.8219 16.9375 13.5281 15.3625 13.4156 13.075C14.1426 12.7651 14.7853 12.215 15.324 11.4736C17.9056 11.3345 20 9.20953 20 6.59369V5.40625C20 5.14716 19.7903 4.9375 19.5312 4.9375ZM19.0625 6.59369C19.0625 8.48163 17.7034 10.0593 15.9347 10.4588C16.6353 9.06441 16.9732 7.43941 17.0959 5.875H19.0625V6.59369Z" fill="#FABE2C"/>
<path d="M12.748 9.9623L12 9.57364L11.252 9.9623C11.0954 10.0429 10.9041 10.0296 10.7604 9.92567C10.6166 9.8213 10.5443 9.64461 10.5736 9.46973L10.7109 8.63705L10.1113 8.04517C9.98074 7.91792 9.94083 7.72927 9.99408 7.56636C10.049 7.39789 10.1946 7.2743 10.3704 7.24777L11.2035 7.12233L11.5807 6.36839C11.74 6.05071 12.26 6.05071 12.4193 6.36839L12.7965 7.12233L13.6296 7.24777C13.8054 7.27433 13.951 7.39792 14.0059 7.56636C14.0608 7.73527 14.016 7.92067 13.8887 8.04517L13.2891 8.63705L13.4264 9.46973C13.4557 9.64461 13.3834 9.8213 13.2396 9.92567C13.0968 10.0291 12.9058 10.0444 12.748 9.9623Z" fill="#FABE2C"/>
<path d="M12.748 9.96232C12.9059 10.0444 13.0969 10.0292 13.2396 9.92569C13.3834 9.82132 13.4557 9.64463 13.4264 9.46975L13.2891 8.63707L13.8887 8.04519C14.016 7.92069 14.0608 7.73528 14.0059 7.56638C13.951 7.39791 13.8054 7.27431 13.6296 7.24778L12.7965 7.12235L12.4193 6.36841C12.3397 6.20956 12.1698 6.13013 12 6.13013V9.57366L12.748 9.96232Z" fill="#FF9100"/>
<path d="M15.75 20H8.25C7.99091 20 7.78125 19.7903 7.78125 19.5312C7.78125 19.2722 7.99091 19.0625 8.25 19.0625H15.75C16.0091 19.0625 16.2188 19.2722 16.2188 19.5312C16.2188 19.7903 16.0091 20 15.75 20Z" fill="#474F54"/>
<path d="M15.75 19.0625H12V20H15.75C16.0091 20 16.2188 19.7903 16.2188 19.5312C16.2188 19.2722 16.0091 19.0625 15.75 19.0625Z" fill="#32393F"/>
</svg>
